<svg width="23" height="23" viewBox="0 0 23 23" fill="none" xmlns="http://www.w3.org/2000/svg">
<g id="Group 1000014957">
<g id="Frame" clip-path="url(#clip0_517_4238)">
<path id="Vector" d="M19.4618 3.52874V19.4713H3.52874V3.52874H19.4618ZM19.4618 2H3.52874C2.68366 2 2 2.68366 2 3.52874V19.4713C2 20.3163 2.68366 21 3.52874 21H19.4713C20.3163 21 21 20.3163 21 19.4713V3.52874C20.9905 2.68366 20.3068 2 19.4618 2Z" fill="white"/>
<path id="Vector_2" d="M5.47446 4.90625H17.5144C18.0272 4.90625 18.2741 5.16262 18.2741 5.66587C18.2741 6.17861 18.0177 6.42549 17.5144 6.42549H5.47446C4.96172 6.42549 4.71484 6.16912 4.71484 5.66587C4.71484 5.16262 4.96172 4.90625 5.47446 4.90625ZM5.47446 10.9072H14.7988C15.2166 10.9072 15.5584 10.5654 15.5584 10.1476C15.5584 9.72984 15.2166 9.38801 14.7988 9.38801H5.47446C5.05667 9.38801 4.71484 9.72984 4.71484 10.1476C4.71484 10.5654 5.05667 10.9072 5.47446 10.9072ZM9.37701 14.3445H5.47446C5.05667 14.3445 4.71484 14.6864 4.71484 15.1042C4.71484 15.5219 5.05667 15.8638 5.47446 15.8638H9.37701C9.7948 15.8638 10.1366 15.5219 10.1366 15.1042C10.1366 14.6864 9.7948 14.3445 9.37701 14.3445ZM17.5239 14.3445H15.8718V12.6924C15.8718 12.2746 15.5299 11.9327 15.1121 11.9327C14.6944 11.9327 14.3525 12.2746 14.3525 12.6924V14.3445H12.7004C12.2826 14.3445 11.9407 14.6864 11.9407 15.1042C11.9407 15.5219 12.2826 15.8638 12.7004 15.8638H14.343V17.5159C14.343 17.9337 14.6849 18.2756 15.1026 18.2756C15.5204 18.2756 15.8623 17.9337 15.8623 17.5159V15.8638H17.5144C17.9322 15.8638 18.2741 15.5219 18.2741 15.1042C18.2836 14.6864 17.9417 14.3445 17.5239 14.3445Z" fill="white"/>
</g>
</g>
<defs>
<clipPath id="clip0_517_4238">
<rect width="19" height="19" fill="white" transform="translate(2 2)"/>
</clipPath>
</defs>
</svg>
