<svg width="22" height="22" viewBox="0 0 22 22" fill="none" xmlns="http://www.w3.org/2000/svg">
<g id="Group 1000014956">
<g id="Frame">
<path id="Vector" d="M1.375 2.75206C1.37473 2.57115 1.41016 2.39196 1.47927 2.22476C1.54838 2.05757 1.6498 1.90565 1.77773 1.77773C1.90565 1.6498 2.05757 1.54838 2.22476 1.47927C2.39196 1.41016 2.57115 1.37473 2.75206 1.375H8.93544C9.11635 1.37473 9.29554 1.41016 9.46274 1.47927C9.62993 1.54838 9.78185 1.6498 9.90977 1.77773C10.0377 1.90565 10.1391 2.05757 10.2082 2.22476C10.2773 2.39196 10.3128 2.57115 10.3125 2.75206V8.93544C10.3128 9.11635 10.2773 9.29554 10.2082 9.46274C10.1391 9.62994 10.0377 9.78185 9.90977 9.90978C9.78185 10.0377 9.62993 10.1391 9.46274 10.2082C9.29554 10.2773 9.11635 10.3128 8.93544 10.3125H2.75206C2.57115 10.3128 2.39196 10.2773 2.22476 10.2082C2.05757 10.1391 1.90565 10.0377 1.77773 9.90978C1.6498 9.78185 1.54838 9.62994 1.47927 9.46274C1.41016 9.29554 1.37473 9.11635 1.375 8.93544V2.75206ZM2.75 3.43613V8.25138C2.75 8.63088 3.05731 8.9375 3.43613 8.9375H8.25138C8.34151 8.93759 8.43077 8.91991 8.51405 8.88546C8.59734 8.85101 8.67301 8.80047 8.73674 8.73674C8.80047 8.67301 8.85101 8.59734 8.88546 8.51405C8.91991 8.43077 8.93759 8.34151 8.9375 8.25138V3.43613C8.93759 3.346 8.91991 3.25674 8.88546 3.17345C8.85101 3.09017 8.80047 3.01449 8.73674 2.95076C8.67301 2.88703 8.59734 2.83649 8.51405 2.80205C8.43077 2.7676 8.34151 2.74991 8.25138 2.75H3.43613C3.346 2.74991 3.25674 2.7676 3.17345 2.80205C3.09017 2.83649 3.01449 2.88703 2.95076 2.95076C2.88703 3.01449 2.83649 3.09017 2.80205 3.17345C2.7676 3.25674 2.74991 3.346 2.75 3.43613ZM1.375 13.0646C1.37473 12.8837 1.41016 12.7045 1.47927 12.5373C1.54838 12.3701 1.6498 12.2182 1.77773 12.0902C1.90565 11.9623 2.05757 11.8609 2.22476 11.7918C2.39196 11.7227 2.57115 11.6872 2.75206 11.6875H8.93544C9.11635 11.6872 9.29554 11.7227 9.46274 11.7918C9.62993 11.8609 9.78185 11.9623 9.90977 12.0902C10.0377 12.2182 10.1391 12.3701 10.2082 12.5373C10.2773 12.7045 10.3128 12.8837 10.3125 13.0646V19.2479C10.3128 19.4289 10.2773 19.608 10.2082 19.7752C10.1391 19.9424 10.0377 20.0944 9.90977 20.2223C9.78185 20.3502 9.62993 20.4516 9.46274 20.5207C9.29554 20.5898 9.11635 20.6253 8.93544 20.625H2.75206C2.57115 20.6253 2.39196 20.5898 2.22476 20.5207C2.05757 20.4516 1.90565 20.3502 1.77773 20.2223C1.6498 20.0944 1.54838 19.9424 1.47927 19.7752C1.41016 19.608 1.37473 19.4289 1.375 19.2479V13.0646ZM11.6875 13.0625H20.625V14.4375H11.6875V13.0625ZM11.6875 17.875H20.625V19.25H11.6875V17.875ZM11.6875 2.75H20.625V4.125H11.6875V2.75ZM11.6875 7.5625H20.625V8.9375H11.6875V7.5625ZM2.75 13.7486V18.5639C2.75 18.9434 3.05731 19.25 3.43613 19.25H8.25138C8.34151 19.2501 8.43077 19.2324 8.51405 19.198C8.59734 19.1635 8.67301 19.113 8.73674 19.0492C8.80047 18.9855 8.85101 18.9098 8.88546 18.8266C8.91991 18.7433 8.93759 18.654 8.9375 18.5639V13.7486C8.93759 13.6585 8.91991 13.5692 8.88546 13.486C8.85101 13.4027 8.80047 13.327 8.73674 13.2633C8.67301 13.1995 8.59734 13.149 8.51405 13.1145C8.43077 13.0801 8.34151 13.0624 8.25138 13.0625H3.43613C3.346 13.0624 3.25674 13.0801 3.17345 13.1145C3.09017 13.149 3.01449 13.1995 2.95076 13.2633C2.88703 13.327 2.83649 13.4027 2.80205 13.486C2.7676 13.5692 2.74991 13.6585 2.75 13.7486Z" fill="white"/>
</g>
</g>
</svg>
