<svg t="1709189167670" class="icon" viewBox="0 0 1024 1024" version="1.1" xmlns="http://www.w3.org/2000/svg" p-id="2299" width="128" height="128"><path d="M840.874378 690.575029v-73.119511a36.559756 36.559756 0 0 1 73.119511 0v73.119511h73.119511a36.559756 36.559756 0 0 1 0 73.119511h-73.119511v73.119512a36.559756 36.559756 0 0 1-73.119511 0v-73.119512h-73.119511a36.559756 36.559756 0 0 1 0-73.119511z m109.679267-438.717067h73.119511v255.918289a36.559756 36.559756 0 1 1-73.119511 0z m-475.276823 219.358534h73.119511v511.836578h-73.119511z m-475.276822-219.358534h73.119511v511.836578H0zM511.836578 73.446355L146.239022 251.857962l365.597556 178.411608 365.597556-178.411608z m511.836578 178.411607L546.933943 496.07713a73.119511 73.119511 0 0 1-65.076365 0L0 251.857962 481.857578 7.638795a73.119511 73.119511 0 0 1 65.076365 0z m-284.434899 577.644138a35.82856 35.82856 0 0 1 48.990073 16.086293 36.559756 36.559756 0 0 1-16.086292 48.990072L511.836578 1024 21.935853 775.393662a37.290951 37.290951 0 0 1-16.086292-49.721267 37.290951 37.290951 0 0 1 48.990072-16.086293L511.836578 942.106148z" p-id="2300" fill="#ffffff"></path></svg>