<svg width="26" height="26" viewBox="0 0 26 26" fill="none" xmlns="http://www.w3.org/2000/svg">
<g id="Group 1000008247">
<g id="Frame">
<path id="Vector" d="M9.84731 3.875C10.1207 3.87482 10.3885 3.95261 10.6192 4.09925L14.2188 6.39063H22.125C22.5062 6.39063 22.8719 6.54208 23.1415 6.81166C23.411 7.08124 23.5625 7.44688 23.5625 7.82813V19.6875C23.5625 20.0687 23.411 20.4344 23.1415 20.704C22.8719 20.9735 22.5062 21.125 22.125 21.125H4.875C4.49375 21.125 4.12812 20.9735 3.85853 20.704C3.58895 20.4344 3.4375 20.0687 3.4375 19.6875V5.3125C3.4375 4.93125 3.58895 4.56562 3.85853 4.29603C4.12812 4.02645 4.49375 3.875 4.875 3.875H9.84731ZM9.84731 5.3125H4.875V19.6875H22.125V7.82813H13.8004L9.84731 5.3125ZM13.5 16.8125C13.6906 16.8125 13.8734 16.8882 14.0082 17.023C14.143 17.1578 14.2188 17.3406 14.2188 17.5312C14.2188 17.7219 14.143 17.9047 14.0082 18.0395C13.8734 18.1743 13.6906 18.25 13.5 18.25H8.46875C8.27813 18.25 8.09531 18.1743 7.96052 18.0395C7.82573 17.9047 7.75 17.7219 7.75 17.5312C7.75 17.3406 7.82573 17.1578 7.96052 17.023C8.09531 16.8882 8.27813 16.8125 8.46875 16.8125H13.5Z" fill="white"/>
</g>
</g>
</svg>
