<svg width="26" height="26" viewBox="0 0 26 26" fill="none" xmlns="http://www.w3.org/2000/svg">
<g id="Frame" clip-path="url(#clip0_328_9291)">
<path id="Vector" d="M24.8766 10.272L14.5779 2.1309C13.6913 1.42772 12.3025 1.42772 11.4158 2.1309L1.12153 10.272C0.767763 10.5515 0.710985 11.0625 0.98614 11.4119C1.2613 11.7613 1.76356 11.8225 2.11733 11.5473L2.43616 11.2853V21.1254C2.43616 22.5186 3.90803 23.5624 5.19645 23.5624H21.4437C22.719 23.5624 23.5576 22.5841 23.5576 21.1254V11.3202L23.8546 11.5473C24.0031 11.6652 24.1865 11.722 24.3656 11.722C24.6058 11.722 24.846 11.6172 25.0076 11.4119C25.2872 11.0625 25.2304 10.5515 24.8766 10.272ZM12.1845 21.9377V17.4304C12.1845 17.2077 12.5907 17.0941 12.9969 17.0941C13.4031 17.0941 13.8093 17.2077 13.8093 17.4304V21.9334L12.1845 21.9377ZM21.9373 21.1254C21.9373 21.6626 21.7888 21.9377 21.4481 21.9377H15.4515C15.4515 21.9246 15.434 21.9159 15.434 21.9028V17.4304C15.434 16.487 14.674 15.4694 12.9969 15.4694C11.3198 15.4694 10.5598 16.487 10.5598 17.4304V21.9028C10.5598 21.9159 10.5816 21.9246 10.5816 21.9377H5.20082C4.68982 21.9377 4.06526 21.4966 4.06526 21.1254V9.99685L12.4116 3.40622C12.713 3.17037 13.2546 3.17037 13.5516 3.40622L21.9329 10.0362V21.1254H21.9373Z" fill="#fff"/>
</g>
<defs>
<clipPath id="clip0_328_9291">
<rect width="26" height="26" fill="white"/>
</clipPath>
</defs>
</svg>
