<svg width="22" height="22" viewBox="0 0 22 22" fill="none" xmlns="http://www.w3.org/2000/svg">
<g id="Frame" clip-path="url(#clip0_328_9285)">
<path id="Vector" d="M12.87 22H9.13C8.94766 22 8.7728 21.9276 8.64386 21.7986C8.51493 21.6697 8.4425 21.4948 8.4425 21.3125V18.7687C8.05327 18.6474 7.67588 18.4909 7.315 18.3013L5.5 20.1025C5.37223 20.2308 5.19978 20.3047 5.01875 20.3088C4.83772 20.3047 4.66527 20.2308 4.5375 20.1025L1.8975 17.4487C1.83173 17.387 1.77931 17.3125 1.74348 17.2297C1.70765 17.1469 1.68916 17.0577 1.68916 16.9675C1.68916 16.8773 1.70765 16.7881 1.74348 16.7053C1.77931 16.6225 1.83173 16.548 1.8975 16.4862L3.69875 14.685C3.50906 14.3241 3.35258 13.9467 3.23125 13.5575H0.6875C0.505164 13.5575 0.330295 13.4851 0.201364 13.3561C0.0724328 13.2272 0 13.0523 0 12.87V9.13C0 8.94766 0.0724328 8.7728 0.201364 8.64386C0.330295 8.51493 0.505164 8.4425 0.6875 8.4425H3.23125C3.35258 8.05327 3.50906 7.67588 3.69875 7.315L1.8975 5.5C1.83173 5.43828 1.77931 5.36373 1.74348 5.28096C1.70765 5.19818 1.68916 5.10895 1.68916 5.01875C1.68916 4.92855 1.70765 4.83932 1.74348 4.75654C1.77931 4.67377 1.83173 4.59922 1.8975 4.5375L4.55125 1.8975C4.67976 1.77153 4.85255 1.70097 5.0325 1.70097C5.21246 1.70097 5.38524 1.77153 5.51375 1.8975L7.315 3.69875C7.67699 3.51143 8.05416 3.35503 8.4425 3.23125V0.6875C8.4425 0.505164 8.51493 0.330295 8.64386 0.201364C8.7728 0.0724328 8.94766 0 9.13 0L12.87 0C13.0523 0 13.2272 0.0724328 13.3561 0.201364C13.4851 0.330295 13.5575 0.505164 13.5575 0.6875V3.23125C13.9458 3.35503 14.323 3.51143 14.685 3.69875L16.5 1.8975C16.6278 1.7692 16.8002 1.69529 16.9813 1.69125C17.1623 1.69529 17.3347 1.7692 17.4625 1.8975L20.1163 4.55125C20.182 4.61297 20.2344 4.68752 20.2703 4.77029C20.3061 4.85307 20.3246 4.9423 20.3246 5.0325C20.3246 5.1227 20.3061 5.21193 20.2703 5.29471C20.2344 5.37748 20.182 5.45203 20.1163 5.51375L18.3013 7.315C18.4909 7.67588 18.6474 8.05327 18.7687 8.4425H21.3125C21.4948 8.4425 21.6697 8.51493 21.7986 8.64386C21.9276 8.7728 22 8.94766 22 9.13V12.87C22 13.0523 21.9276 13.2272 21.7986 13.3561C21.6697 13.4851 21.4948 13.5575 21.3125 13.5575H18.7687C18.6474 13.9467 18.4909 14.3241 18.3013 14.685L20.1025 16.5C20.1683 16.5617 20.2207 16.6363 20.2565 16.719C20.2924 16.8018 20.3108 16.8911 20.3108 16.9813C20.3108 17.0714 20.2924 17.1607 20.2565 17.2435C20.2207 17.3262 20.1683 17.4008 20.1025 17.4625L17.4487 20.1163C17.3202 20.2422 17.1475 20.3128 16.9675 20.3128C16.7875 20.3128 16.6148 20.2422 16.4862 20.1163L14.685 18.315C14.323 18.5023 13.9458 18.6587 13.5575 18.7825V21.3125C13.5575 21.4948 13.4851 21.6697 13.3561 21.7986C13.2272 21.9276 13.0523 22 12.87 22ZM9.8175 20.625H12.1825V18.26C12.1835 18.1059 12.2351 17.9564 12.3296 17.8346C12.424 17.7128 12.556 17.6255 12.705 17.5862C13.3197 17.4305 13.9082 17.185 14.4513 16.8575C14.584 16.782 14.7377 16.7519 14.8891 16.7718C15.0405 16.7916 15.1812 16.8604 15.29 16.9675L16.9675 18.645L18.645 16.9675L16.9675 15.29C16.8604 15.1812 16.7916 15.0405 16.7718 14.8891C16.7519 14.7377 16.782 14.584 16.8575 14.4513C17.1897 13.9106 17.4356 13.3214 17.5862 12.705C17.6255 12.556 17.7128 12.424 17.8346 12.3296C17.9564 12.2351 18.1059 12.1835 18.26 12.1825H20.625V9.8175H18.26C18.1059 9.81655 17.9564 9.76485 17.8346 9.67041C17.7128 9.57596 17.6255 9.44403 17.5862 9.295C17.4356 8.67858 17.1897 8.08942 16.8575 7.54875C16.782 7.41603 16.7519 7.2623 16.7718 7.11092C16.7916 6.95954 16.8604 6.81877 16.9675 6.71L18.645 5.0325L16.9675 3.355L15.29 5.0325C15.1812 5.13964 15.0405 5.20836 14.8891 5.22821C14.7377 5.24807 14.584 5.21797 14.4513 5.1425C13.9082 4.81504 13.3197 4.56948 12.705 4.41375C12.556 4.37447 12.424 4.28719 12.3296 4.1654C12.2351 4.04362 12.1835 3.89411 12.1825 3.74V1.375H9.8175V3.74C9.81655 3.89411 9.76485 4.04362 9.67041 4.1654C9.57596 4.28719 9.44403 4.37447 9.295 4.41375C8.68025 4.56948 8.09183 4.81504 7.54875 5.1425C7.41603 5.21797 7.2623 5.24807 7.11092 5.22821C6.95954 5.20836 6.81877 5.13964 6.71 5.0325L5.0325 3.355L3.355 5.0325L5.0325 6.71C5.13964 6.81877 5.20836 6.95954 5.22821 7.11092C5.24807 7.2623 5.21797 7.41603 5.1425 7.54875C4.8103 8.08942 4.56444 8.67858 4.41375 9.295C4.37447 9.44403 4.28719 9.57596 4.1654 9.67041C4.04362 9.76485 3.89411 9.81655 3.74 9.8175H1.375V12.1825H3.74C3.89411 12.1835 4.04362 12.2351 4.1654 12.3296C4.28719 12.424 4.37447 12.556 4.41375 12.705C4.56444 13.3214 4.8103 13.9106 5.1425 14.4513C5.21797 14.584 5.24807 14.7377 5.22821 14.8891C5.20836 15.0405 5.13964 15.1812 5.0325 15.29L3.355 16.9675L5.0325 18.645L6.71 16.9675C6.81877 16.8604 6.95954 16.7916 7.11092 16.7718C7.2623 16.7519 7.41603 16.782 7.54875 16.8575C8.09062 17.1874 8.6794 17.4331 9.295 17.5862C9.44403 17.6255 9.57596 17.7128 9.67041 17.8346C9.76485 17.9564 9.81655 18.1059 9.8175 18.26V20.625Z" fill="white"/>
<path id="Vector_2" d="M10.9984 14.5066C10.305 14.5066 9.62707 14.301 9.05047 13.9157C8.47387 13.5305 8.02447 12.9829 7.75909 12.3422C7.49371 11.7015 7.42427 10.9965 7.55956 10.3164C7.69485 9.63621 8.02879 9.01146 8.51915 8.5211C9.0095 8.03074 9.63426 7.6968 10.3144 7.56151C10.9945 7.42622 11.6995 7.49566 12.3402 7.76104C12.9809 8.02642 13.5285 8.47582 13.9138 9.05242C14.2991 9.62902 14.5047 10.3069 14.5047 11.0004C14.5011 11.9292 14.1305 12.8189 13.4737 13.4757C12.817 14.1325 11.9272 14.503 10.9984 14.5066ZM10.9984 8.86914C10.5769 8.86914 10.1649 8.99414 9.81438 9.22832C9.4639 9.46251 9.19073 9.79536 9.02942 10.1848C8.86811 10.5742 8.82591 11.0028 8.90814 11.4162C8.99037 11.8296 9.19336 12.2094 9.49142 12.5074C9.78948 12.8055 10.1692 13.0085 10.5827 13.0907C10.9961 13.1729 11.4246 13.1307 11.814 12.9694C12.2035 12.8081 12.5363 12.5349 12.7705 12.1845C13.0047 11.834 13.1297 11.4219 13.1297 11.0004C13.1261 10.4363 12.9004 9.89626 12.5015 9.49735C12.1026 9.09845 11.5626 8.87275 10.9984 8.86914Z" fill="white"/>
</g>
<defs>
<clipPath id="clip0_328_9285">
<rect width="22" height="22" fill="white"/>
</clipPath>
</defs>
</svg>
