<svg width="26" height="26" viewBox="0 0 26 26" fill="none" xmlns="http://www.w3.org/2000/svg">
<g id="Group 1000008249">
<g id="Frame">
<path id="Vector" d="M13.5 1.95312C13.7072 1.95313 13.9059 2.03543 14.0524 2.18195C14.1989 2.32846 14.2812 2.52717 14.2812 2.73438V3.39258H21.1281C22.4684 3.39258 23.5586 4.47695 23.5586 5.81914V14.8672C23.5586 16.209 22.4687 17.2937 21.1281 17.2937H14.2812V19.0406L17.768 21.532C17.8536 21.5908 17.9267 21.666 17.9829 21.7533C18.0391 21.8406 18.0774 21.9383 18.0954 22.0406C18.1134 22.1429 18.1109 22.2477 18.088 22.349C18.065 22.4503 18.0221 22.546 17.9617 22.6305C17.9013 22.715 17.8247 22.7866 17.7363 22.8411C17.6479 22.8957 17.5496 22.932 17.447 22.9481C17.3444 22.9642 17.2396 22.9596 17.1388 22.9347C17.0379 22.9099 16.9431 22.8651 16.8598 22.8031L13.5 20.4031L10.1402 22.8035C10.0568 22.8642 9.96222 22.9078 9.86188 22.9318C9.76154 22.9558 9.65744 22.9596 9.5556 22.9431C9.45376 22.9266 9.35619 22.8902 9.26852 22.8358C9.18086 22.7814 9.10484 22.7102 9.04484 22.6262C8.98485 22.5423 8.94207 22.4473 8.91898 22.3468C8.89589 22.2462 8.89295 22.1421 8.91031 22.0404C8.92768 21.9387 8.96502 21.8415 9.02017 21.7543C9.07532 21.6671 9.14719 21.5917 9.23164 21.5324L12.7188 19.041V17.2941H5.87188C4.53164 17.2941 3.44141 16.2094 3.44141 14.8676V5.81914C3.44141 4.47695 4.53125 3.39258 5.87188 3.39258H12.7188V2.73438C12.7188 2.52717 12.8011 2.32846 12.9476 2.18195C13.0941 2.03543 13.2928 1.95313 13.5 1.95312ZM5.87188 4.95508C5.75815 4.95482 5.64548 4.97697 5.54032 5.02025C5.43515 5.06354 5.33954 5.12711 5.25894 5.20735C5.17834 5.28758 5.11433 5.38291 5.07057 5.48788C5.02682 5.59285 5.00416 5.70541 5.00391 5.81914V14.8672C5.00391 15.3426 5.39063 15.7312 5.87188 15.7312H21.1281C21.2419 15.7315 21.3545 15.7094 21.4597 15.6661C21.5649 15.6228 21.6605 15.5592 21.7411 15.479C21.8217 15.3987 21.8857 15.3034 21.9294 15.1984C21.9732 15.0935 21.9958 14.9809 21.9961 14.8672V5.81914C21.9961 5.34375 21.6094 4.95508 21.1281 4.95508H5.87188ZM19.6102 7.57734C19.6899 7.64199 19.7561 7.7217 19.805 7.81194C19.8539 7.90217 19.8845 8.00116 19.8951 8.10324C19.9058 8.20532 19.8962 8.30849 19.8669 8.40687C19.8377 8.50524 19.7893 8.59688 19.7246 8.67656L16.6129 12.5086C16.5007 12.6466 16.3448 12.7423 16.171 12.7797C15.9971 12.8171 15.8157 12.7941 15.6566 12.7145L10.3492 10.057L8.17031 12.1852C8.09726 12.2584 8.01039 12.3164 7.91474 12.3558C7.81909 12.3952 7.71657 12.4152 7.61313 12.4146C7.50969 12.4141 7.40739 12.393 7.31216 12.3526C7.21693 12.3122 7.13067 12.2533 7.05838 12.1793C6.9861 12.1053 6.92922 12.0177 6.89106 11.9216C6.85291 11.8254 6.83422 11.7227 6.83609 11.6193C6.83797 11.5158 6.86036 11.4138 6.90198 11.3191C6.94359 11.2244 7.0036 11.1389 7.07852 11.0676L9.65547 8.55039C9.77173 8.43689 9.92048 8.36247 10.081 8.33747C10.2416 8.31248 10.4059 8.33816 10.5512 8.41094L15.7953 11.0367L18.5113 7.69141C18.576 7.61172 18.6557 7.54556 18.746 7.4967C18.8362 7.44784 18.9352 7.41723 19.0373 7.40664C19.1394 7.39605 19.2426 7.40567 19.3409 7.43496C19.4393 7.46425 19.5309 7.51263 19.6105 7.57734H19.6102Z" fill="white"/>
</g>
</g>
</svg>
